# xmcd
#
# Track frame offsets: 
#        150
#        18832
#        34500
#        51230
#        70050
#        89805
#        108475
#        122512
#        143742
#        158750
#
# Disc length: 2375 seconds
#
# Revision: 4
# Processed by: cddbd v1.5.2PL0 Copyright (c) Steve Scherf et al.
# Submitted via: ExactAudioCopy v0.99pb5
#
DISCID=7e09450a
DTITLE=Big Fat Snake - JBL Power Performance
DYEAR=1995
DGENRE=Rock
TTITLE0=No peace like in heaven
TTITLE1=Midnight mission man
TTITLE2=Back into your eyes
TTITLE3=Run run run
TTITLE4=You and I
TTITLE5=Somewhere in heaven
TTITLE6=Hit me
TTITLE7=Gone forever
TTITLE8=You're an apple, I'm an orange
TTITLE9=Life never was easy
EXTD=
EXTT0=
EXTT1=
EXTT2=
EXTT3=
EXTT4=
EXTT5=
EXTT6=
EXTT7=
EXTT8=
EXTT9=
PLAYORDER=
